<?xml version="1.0" encoding="UTF-8"?>
<svg id="weapon_tree" data-name="weapon tree" xmlns="http://www.w3.org/2000/svg" width="974.2979" height="1547.234" viewBox="0 0 974.2979 1547.234">
  <g>
    <path d="M161.1344,1075.4177l-3.4163-3.4248c-3.5742,3.5727-7.1674,7.1644-10.939,10.9344v-.9675c0-3.6911,.0088-7.3822-.0105-11.0731-.0026-.4915,.1048-.7976,.562-1.0623,11.9479-6.918,23.8862-13.8523,35.8272-20.7822,.1564-.0908,.3254-.1601,.6629-.3243-.2078,.4008-.3217,.6367-.4495,.8647-6.6983,11.9439-13.4027,23.8845-20.0829,35.8385-.331,.5923-.6964,.7912-1.3587,.7854-3.5798-.031-7.16-.0147-10.74-.0147h-.834c3.6128-3.6112,7.1858-7.1826,10.7789-10.7742Z" fill="#fff"/>
    <path d="M134.165,1095.6549l-2.8702-2.6577c1.7992-1.7698,3.5278-3.4916,5.2855-5.1831,.4126-.3971,.5852-.801,.5724-1.3778-.0376-1.6924,.0065-3.3866-.0256-5.0793-.0095-.5033,.1575-.8044,.5637-1.0893,1.4278-1.0013,2.8286-2.0413,4.3666-3.1588v13.7665h13.9407c-1.2525,1.7245-2.3573,3.2759-3.5087,4.7918-.14,.1843-.5302,.2454-.8059,.2489-1.693,.022-3.3874,.0448-5.0792-.0056-.6758-.0201-1.1103,.226-1.5826,.6803-1.6999,1.6348-3.4542,3.213-5.2077,4.8308l-2.3207-2.4546c-10.106,9.9371-20.0694,19.7341-29.9428,29.4425l-3.4387-3.1978c9.9942-9.8291,19.9391-19.6097,30.0532-29.5568Z" fill="#fff"/>
  </g>
  <path d="M138.6858,555.5948h-.3502c-.2632-.1175-.5255-.2371-.7898-.352-2.9641-1.2882-5.9927-2.447-8.8805-3.8881-7.702-3.8435-14.5618-8.8185-20.0182-15.5647-4.4332-5.4811-7.4674-11.6288-8.3644-18.6723-.3262-2.5613-.2723-5.1794-.2766-7.7718-.0236-14.1274-.0112-28.2549-.0112-42.3824,0-.3358,0-.6715,0-.9935h77.0317c0,.3645-.0004,.6791,0,.9937,.0204,15.1196,.0511,30.2392,.0466,45.3588-.0005,1.6287-.1054,3.2712-.3309,4.8837-1.0494,7.5056-4.3732,13.9653-9.2646,19.6598-5.8854,6.8516-13.1942,11.7826-21.3189,15.5655-2.4507,1.1411-4.9799,2.1136-7.4731,3.1633Zm-.0963-47.1931c-.0308,.2853-.0883,.5705-.0884,.8558-.0045,11.5251-.0042,23.0503-.002,34.5754,0,.2757,.0275,.5513,.0437,.855,.1575-.0334,.2437-.0415,.3224-.0699,7.4488-2.6854,14.3293-6.3609,20.155-11.801,5.7719-5.39,9.7534-11.7922,10.7373-19.7882,.1825-1.483,.1742-2.9896,.2569-4.5396h-1.2626c-9.7131,0-19.4262,.0008-29.1394-.0031-.3456-.0001-.6911-.0456-1.0367-.0699-.0262-.3455-.0751-.691-.0752-1.0365-.004-11.3497-.0033-22.6995-.0033-34.0492v-1.0667h-31.6641v36.2108c.2618,.0127,.4889,.0332,.716,.0333,10.092,.0016,20.1841,.0022,30.2761-.0032,.2553-.0001,.5106-.0683,.7644-.1031Z" fill="#fff"/>
  <path d="M100.7783,272.999c.2157-.1909,.4422-.3711,.6457-.5744,4.9538-4.9499,9.9055-9.9021,14.8563-14.855,.2232-.2233,.4353-.4579,.7204-.7589-1.3952-1.3877-2.7545-2.7414-4.1156-4.0933-1.6388-1.6277-2.5254-3.5573-2.2896-5.9008,.2751-2.7338,1.7187-4.7004,4.204-5.7811,2.4275-1.0555,4.8103-.756,6.9395,.8434,.9271,.6964,1.7292,1.5592,2.8776,2.6118,.1537-.2766,.2646-.6432,.5033-.8822,14.8049-14.8239,29.6181-29.6395,44.4473-44.4392,.3652-.3645,.8881-.6801,1.3866-.7852,6.2151-1.3096,12.4395-2.5755,18.6607-3.8564,.1676-.0345,.3262-.1123,.4891-.1698,.1168,0,.2335,0,.3503,0-1.336,6.5065-2.6613,13.0153-4.0295,19.515-.1048,.4976-.4274,1.0168-.7925,1.3826-14.7775,14.8063-29.571,29.5966-44.3678,44.3837-.2453,.2451-.5555,.4254-.8663,.6592,.8727,.9339,1.6437,1.6814,2.3257,2.5029,2.346,2.826,2.1372,6.9312-.4472,9.4459-2.6023,2.532-6.6353,2.7322-9.3796,.3605-1.4756-1.2752-2.8086-2.7154-4.2068-4.0801-.225-.2196-.455-.434-.7036-.6709-5.4167,5.4176-10.7949,10.7967-16.2281,16.2308-2.2328-2.2447-4.3827-4.4213-6.5504-6.5801-1.4635-1.4574-2.952-2.8896-4.4293-4.3331v-.1751Zm36.0103-16.3544c.0804-.0663,.1529-.1167,.2143-.178,14.6979-14.695,29.396-29.3898,44.0832-44.0955,.2278-.228,.3962-.5742,.465-.8927,.4856-2.2508,.938-4.5087,1.4005-6.7644,.2367-1.1545,.4726-2.3091,.723-3.5325-.2808,.0208-.4244,.0159-.5612,.0438-3.17,.6473-6.3438,1.2778-9.5042,1.9694-.5009,.1096-1.0319,.406-1.396,.7694-14.5053,14.4749-28.993,28.9674-43.4821,43.4585-.2009,.2009-.3913,.4123-.4646,.4898l2.5464,2.6068c8.1116-8.1122,16.271-16.2722,24.3651-24.3669l3.6329,3.6348c-8.1178,8.1171-16.2822,16.2808-24.4152,24.413l2.3929,2.4446Zm2.319,10.2918c-.2184-.3095-.5256-.9061-.9767-1.3595-6.2792-6.3109-12.5775-12.6029-18.8747-18.896-.2461-.2459-.5054-.4914-.797-.6764-.7146-.4534-1.5905-.3354-2.1567,.2516-.5644,.5852-.6422,1.4643-.1633,2.1688,.1785,.2626,.4036,.4978,.6293,.7236,6.2927,6.2975,12.5874,12.5929,18.886,18.8845,.2666,.2663,.5451,.541,.8667,.7281,1.1221,.6525,2.5783-.2006,2.5864-1.8247Zm-18.4091-6.1624l-5.9199,5.9317,3.3215,3.3393,5.9358-5.9241-3.3373-3.3468Zm-12.296,12.1553l3.3608,3.3981,2.3689-2.3018-3.3821-3.3743-2.3475,2.2781Z" fill="#fff"/>
  <path d="M174.9937,1312.3568c.0461,.0459,.0843,.1075,.1395,.1354,1.2426,.6271,1.6533,1.496,1.2343,2.8131-2,6.2861-4.0051,12.5706-6.0386,18.8459-.5635,1.7389-2.3507,2.1401-3.6607,.8528-1.6311-1.6029-3.2335-3.2349-4.8048-4.8107l-5.7746,5.7865c.9313,1.0822,1.9408,2.2091,2.9,3.3774,6.0983,7.4286,10.3856,15.794,12.9107,25.0639,1.5483,5.6839,2.283,11.4783,2.3183,17.3645,.0064,1.067-.4711,1.8285-1.3513,2.1608-.9812,.3704-1.755,.0071-2.4563-.6949-10.085-10.0939-20.1763-20.1814-30.2627-30.2738-.1953-.1954-.3504-.431-.5593-.6915-1.6447,1.6433-3.1863,3.165-4.6927,4.721-.1306,.1349-.099,.5184-.0237,.7473,1.2447,3.787,2.4678,7.5819,3.7891,11.3423,.4837,1.3765,.2359,2.3763-.8041,3.3859-2.8817,2.7975-5.6904,5.6701-8.5352,8.5057-.9057,.9028-2.0388,1.0835-2.8835,.3648-.3995-.3399-.7129-.8689-.8857-1.3736-1.3365-3.9038-2.6379-7.8197-3.9245-11.7402-.1678-.5113-.4089-.7963-.9421-.9703-3.9227-1.28-7.8335-2.5965-11.7467-3.9052-2.0306-.6791-2.431-2.3972-.9101-3.921,2.8706-2.8759,5.7576-5.7355,8.6143-8.6252,.8344-.844,1.7155-1.0578,2.8513-.6698,3.8604,1.3188,7.7413,2.5776,11.607,3.8811,.433,.146,.705,.1064,1.0343-.2322,1.4313-1.4722,2.8956-2.9124,4.5645-4.5807-.2772-.1616-.5664-.2597-.7602-.4532-9.9646-9.9501-19.9236-19.9057-29.8705-29.8734-.4835-.4845-.8526-1.083-1.275-1.6285v-.9808c.4506-1.0198,1.1571-1.6256,2.3465-1.6139,5.8579,.0577,11.6242,.7793,17.283,2.3153,9.2898,2.5215,17.6689,6.8149,25.1116,12.9225,1.1678,.9583,2.2938,1.9674,3.3882,2.9092l5.7816-5.7726c-1.5451-1.5421-3.1368-3.1161-4.7117-4.7067-1.4491-1.4635-1.0237-3.1949,.9361-3.8298,2.4596-.7968,4.9243-1.5779,7.3852-2.3708,3.9-1.2566,7.7986-2.5174,11.6978-3.7764,.3269,0,.6539,0,.9808,0Zm-32.2837,36.9699l27.0786,27.0786c-1.3733-14.32-6.9945-26.8227-16.7308-37.4414-3.5402,3.5453-7.0016,7.0117-10.3478,10.3628Zm-30.2427-30.2238l27.054,27.054c3.376-3.371,6.8532-6.843,10.3734-10.358-10.6147-9.7114-23.1082-15.3305-37.4274-16.696Z" fill="#fff"/>
  <g>
    <path d="M130.7089,796.3342c-1.018,3.5144-1.9447,6.8602-2.983,10.171-.2025,.6456-.8387,1.1552-1.2748,1.7276-.5356-.482-1.2627-.8643-1.5741-1.4629-1.4766-2.8383-2.871-5.721-4.2294-8.6185-.6091-1.2994-1.2981-1.6384-2.5276-.7064-1.2299,.9323-2.5203,1.7968-3.8503,2.5786-.4555,.2678-1.3458,.4586-1.6185,.2152-.3817-.3407-.5568-1.1429-.4891-1.708,.1302-1.0874,.4895-2.1478,.7597-3.2178,.6516-2.5804-.3228-4.0633-2.9572-4.3698-2.9067-.3382-5.8286-.554-8.7273-.9461-.7837-.106-1.5071-.6573-2.2583-1.0042,.4558-.6747,.7793-1.52,1.3907-1.994,2.4425-1.8939,4.9797-3.6653,7.4714-5.4962,1.4712-1.0811,1.5327-1.7615,.3008-3.0546-1.2192-1.2796-2.4969-2.5077-3.6495-3.8442-.3756-.4355-.7326-1.2602-.5588-1.6877,.1631-.4014,1.0408-.7208,1.5998-.7144,1.8195,.0208,3.636,.2289,5.4558,.3236,1.5643,.0814,2.2551-.5758,2.1636-2.1308-.1914-3.2526-.4843-6.4999-.6297-9.7541-.0299-.6699,.4024-1.3604,.6216-2.0414,.6642,.25,1.4807,.3337,1.9668,.7784,2.3631,2.1616,4.6325,4.4254,6.9456,6.642,1.3887,1.3308,2.3534,1.2347,3.4959-.3262,.9783-1.3366,1.9083-2.7118,2.9481-3.9983,.2973-.3678,1.0065-.7716,1.3416-.6498,.4525,.1645,.9555,.7838,1.0351,1.2733,.2831,1.741,.3667,3.5132,.5819,5.2668,.1884,1.5346,.9903,2.0839,2.489,1.7212,3.1648-.7659,6.3122-1.6073,9.4904-2.3114,.6522-.1445,1.4075,.1768,2.1153,.2834-.1438,.6978-.1057,1.5109-.4624,2.0737-1.6543,2.6103-3.4214,5.149-5.1418,7.7176-1.3016,1.9433-1.1041,2.6336,1.0329,3.6776,1.5867,.7752,3.2049,1.4943,4.7415,2.3584,.4924,.2769,1.1067,.9797,1.0526,1.4107-.0579,.4612-.7739,1.0241-1.3158,1.2069-1.9326,.6518-3.919,1.1421-5.874,1.73-1.5483,.4656-1.6884,.9944-.5402,2.1254,1.2697,1.2506,2.5745,2.4405,2.5126,4.4583-.0092,.2987,.3795,.6454,.6433,.9111,2.8411,2.8614,5.677,5.7285,8.5651,8.542,.3644,.355,1.0319,.6028,1.5377,.5703,1.5215-.0979,2.638,.5264,3.6666,1.5593,6.3536,6.3796,12.7156,12.751,19.113,19.0866,.6346,.6285,1.4706,1.1455,2.3085,1.4608,3.2695,1.2303,5.3448,4.4659,4.8836,7.7982-.4873,3.5212-3.2452,6.117-6.7917,6.3926-3.3628,.2613-6.4347-1.9804-7.4975-5.3352-.2671-.8432-.7626-1.705-1.3823-2.3316-6.1368-6.2055-12.3119-12.3733-18.5021-18.5257-1.1391-1.1322-2.0518-2.2786-1.8898-4.0282,.0361-.3896-.3287-.9032-.6456-1.2251-2.8672-2.9129-5.7642-5.7964-8.6547-8.6864-.1947-.1946-.3772-.457-.6169-.5412-1.0166-.3574-2.1497-.4947-3.0545-1.0277-.9144-.5387-1.6096-1.4494-2.5337-2.3227Zm-15.4332-.1139c.5882-.3173,.9282-.4673,1.2329-.6704,1.928-1.2852,3.812-2.6425,5.7978-3.8302,.4592-.2747,1.2572,.0172,1.8993,.0483-.1797,.6543-.235,1.386-.5785,1.9385-.2761,.4441-.9011,.6712-1.5243,1.0999,5.6056,1.4134,11.8516-2.657,12.7823-5.4978-.7827-.4918-1.8661-.7882-2.0558-1.3741-.3612-1.1157,.7687-1.361,1.6299-1.5983,.3189-.0879,.6383-.1742,.9557-.2672,2.1289-.6233,4.2574-1.2483,6.7342-1.9748-2.7034-1.3215-5.0251-2.463-7.3533-3.591-.7946-.385-1.5542-.8441-1.1202-1.8672,.4363-1.0286,1.2659-.8565,2.087-.4381,.1601,.0816,.3456,.1135,.7561,.243-.8941-2.7028-2.2908-4.6761-4.5333-6.5066,.0641,1.067,.2623,1.7687,.0922,2.3654-.1334,.4679-.6731,1.0262-1.1257,1.1276-.3247,.0727-.8885-.4789-1.1841-.873-.2002-.2669-.1216-.7439-.1651-1.1273-.2812-2.4736-.5617-4.9473-.8842-7.7896-.4649,.5968-.6688,.8444-.8575,1.1031-1.398,1.917-2.739,3.8802-4.2319,5.7201-.3213,.396-1.1878,.3498-1.8031,.5073-.0577-.6333-.2585-1.2976-.1302-1.8906,.1129-.5213,.5944-.9627,1.0515-1.6466-2.9067,.3289-5.1519,1.3958-7.3585,3.3309,.8685,.0985,1.4479,.0478,1.9151,.2527,.3999,.1755,.8293,.597,.9486,.9981,.0921,.3095-.1751,.9413-.4632,1.0985-.4417,.2409-1.0437,.2875-1.569,.2587-2.5487-.14-5.0945-.3326-7.9891-.5303,.4641,.5457,.6554,.7958,.8721,1.0215,1.644,1.7122,3.3457,3.3737,4.8994,5.164,.3434,.3957,.1682,1.2413,.2319,1.8798-.6359-.0405-1.2889-.0077-1.901-.1505-.3371-.0786-.6055-.4521-1.093-.8438,.0734,3.2119,.8484,5.8423,2.8812,8.3458,.2609-.9756,.4581-1.6541,.6221-2.3406,.2143-.8965,.4671-1.8812,1.6462-1.6086,1.1513,.2661,1.0276,1.1934,.7821,2.1417-.6456,2.4945-1.2266,5.0057-1.8967,7.7721Zm57.2384,29.5203c-5.443-5.4563-11.0397-11.0836-16.6566-16.6906-3.1903-3.1847-2.6113-3.4111-6.0366,.0349-1.4943,1.5033-1.4898,1.7671,.0709,3.3291,5.6523,5.6573,11.3068,11.3123,16.963,16.9657,.3756,.3754,.7723,.7296,.9398,.8873l4.7196-4.5263Zm7.2949,7.3791c.0195-2.6998-2.1407-4.8737-4.8171-4.8478-2.5919,.0251-4.7396,2.1687-4.7715,4.7624-.0326,2.6505,2.1767,4.8522,4.8501,4.8335,2.6273-.0184,4.7195-2.1148,4.7384-4.7481Zm-30.5125-27.1269l-9.1957-9.2269-1.465,1.134c3.2317,3.2329,6.2846,6.2869,9.4477,9.4512l1.213-1.3583Zm-16.1126-10.5825c.6833,.4127,1.9604,1.7051,2.5704,1.4432,1.2484-.5359,2.4737-1.7557,3.0325-2.998,.2723-.6053-.9744-1.894-1.4657-2.7546l-4.1371,4.3094Zm8.5476-25.4442l-6.2842,1.5621,2.659,3.7898,3.6252-5.3519Zm-26.1849-6.8859l-.3826,.1735,.4706,6.0064,3.8425-1.8051-3.9304-4.3747Zm-5.6029,25.356l-1.24-4.4751-5.1749,3.7715,6.4149,.7035Zm13.2674,9.3344l2.8095,5.7602,1.782-6.1857-4.5915,.4255Z" fill="#fff"/>
    <path d="M124.1002,776.8018c3.0432-.0342,5.5127,2.3672,5.5371,5.3843,.0241,2.9927-2.463,5.5002-5.4557,5.5003-2.9318,.0001-5.379-2.4003-5.4413-5.3373-.0644-3.0353,2.33-5.5133,5.3599-5.5473Zm.0021,8.3655c1.6445,.0402,2.9705-1.2214,3.0107-2.8647,.0399-1.6328-1.2385-3.0001-2.8504-3.0487-1.594-.0481-2.9815,1.2787-3.021,2.8889-.0403,1.6433,1.2284,2.9846,2.8607,3.0245Z" fill="#fff"/>
    <path d="M176.7323,833.0044c-.7332,.5709-1.2106,1.2178-1.5756,1.1596-.4956-.079-.9051-.6976-1.3516-1.0848,.4259-.409,.8034-1.0478,1.2937-1.1511,.3627-.0764,.8722,.5445,1.6335,1.0762Z" fill="#fff"/>
  </g>
  <g>
    <line x1="892.643" y1="182.416" x2="703.6596" y2="137.8202" fill="none" stroke="#009b0b" stroke-linecap="round" stroke-miterlimit="10" stroke-width="4"/>
    <line x1="703.6596" y1="235.7777" x2="891.1111" y2="184.2883" fill="none" stroke="#f70000" stroke-linecap="round" stroke-miterlimit="10" stroke-width="4"/>
    <line x1="892.2601" y1="283.8628" x2="703.2766" y2="239.267" fill="none" stroke="#f70000" stroke-linecap="round" stroke-miterlimit="10" stroke-width="4"/>
    <line x1="703.2766" y1="337.2245" x2="890.7281" y2="285.7351" fill="none" stroke="#0027e5" stroke-linecap="round" stroke-miterlimit="10" stroke-width="4"/>
    <polyline points="892.643 138.3309 278.8558 138.3309 233.7994 228.9131 198.7729 228.9131" fill="none" stroke="#009b0b" stroke-linecap="round" stroke-miterlimit="10" stroke-width="4"/>
    <circle cx="330.3452" cy="137.8202" r="10.5957" fill="#fff" stroke="#009b0b" stroke-linecap="round" stroke-miterlimit="10" stroke-width="3"/>
    <circle cx="503.3617" cy="137.8202" r="10.5957" fill="#fff" stroke="#009b0b" stroke-linecap="round" stroke-miterlimit="10" stroke-width="3"/>
    <circle cx="703.6596" cy="137.8202" r="10.5957" fill="#fff" stroke="#009b0b" stroke-linecap="round" stroke-miterlimit="10" stroke-width="3"/>
    <circle cx="892.643" cy="182.416" r="10.5957" fill="#fff" stroke="#8b8e8b" stroke-linecap="round" stroke-miterlimit="10" stroke-width="3"/>
    <circle cx="892.643" cy="285.0543" r="10.5957" fill="#fff" stroke="#8b8e8b" stroke-linecap="round" stroke-miterlimit="10" stroke-width="3"/>
    <circle cx="892.643" cy="137.8202" r="10.5957" fill="#fff" stroke="#009b0b" stroke-linecap="round" stroke-miterlimit="10" stroke-width="3"/>
    <polyline points="892.643 334.3309 278.8558 334.3309 233.3098 242.7645 198.7729 242.7645" fill="none" stroke="#0027e5" stroke-linecap="round" stroke-miterlimit="10" stroke-width="4"/>
    <circle cx="330.3452" cy="334.8415" r="10.5957" fill="#fff" stroke="#0027e5" stroke-linecap="round" stroke-miterlimit="10" stroke-width="3"/>
    <circle cx="503.3617" cy="334.8415" r="10.5957" fill="#fff" stroke="#0027e5" stroke-linecap="round" stroke-miterlimit="10" stroke-width="3"/>
    <circle cx="703.6596" cy="334.8415" r="10.5957" fill="#fff" stroke="#0027e5" stroke-linecap="round" stroke-miterlimit="10" stroke-width="3"/>
    <circle cx="892.643" cy="334.8415" r="10.5957" fill="#fff" stroke="#0027e5" stroke-linecap="round" stroke-miterlimit="10" stroke-width="3"/>
    <line x1="892.643" y1="236.8841" x2="198.7729" y2="236.8841" fill="none" stroke="#f70000" stroke-linecap="round" stroke-miterlimit="10" stroke-width="4"/>
    <circle cx="330.3452" cy="235.7777" r="10.5957" fill="#fff" stroke="#f70000" stroke-linecap="round" stroke-miterlimit="10" stroke-width="4"/>
    <circle cx="503.3617" cy="235.7777" r="10.5957" fill="#fff" stroke="#f70000" stroke-linecap="round" stroke-miterlimit="10" stroke-width="4"/>
    <circle cx="703.6596" cy="235.7777" r="10.5957" fill="#fff" stroke="#f70000" stroke-linecap="round" stroke-miterlimit="10" stroke-width="4"/>
    <circle cx="892.643" cy="235.7777" r="10.5957" fill="#fff" stroke="#f70000" stroke-linecap="round" stroke-miterlimit="10" stroke-width="4"/>
  </g>
  <g>
    <line x1="892.643" y1="470.5137" x2="703.6596" y2="425.918" fill="none" stroke="#009b0b" stroke-linecap="round" stroke-miterlimit="10" stroke-width="4"/>
    <line x1="703.6596" y1="523.8754" x2="891.1111" y2="472.3861" fill="none" stroke="#f70000" stroke-linecap="round" stroke-miterlimit="10" stroke-width="4"/>
    <line x1="892.2601" y1="571.9605" x2="703.2766" y2="527.3648" fill="none" stroke="#f70000" stroke-linecap="round" stroke-miterlimit="10" stroke-width="4"/>
    <line x1="703.2766" y1="625.3223" x2="890.7281" y2="573.8329" fill="none" stroke="#0027e5" stroke-linecap="round" stroke-miterlimit="10" stroke-width="4"/>
    <polyline points="892.643 426.4286 278.8558 426.4286 233.7994 517.0108 198.7729 517.0108" fill="none" stroke="#009b0b" stroke-linecap="round" stroke-miterlimit="10" stroke-width="4"/>
    <circle cx="330.3452" cy="425.918" r="10.5957" fill="#fff" stroke="#009b0b" stroke-linecap="round" stroke-miterlimit="10" stroke-width="3"/>
    <circle cx="503.3617" cy="425.918" r="10.5957" fill="#fff" stroke="#009b0b" stroke-linecap="round" stroke-miterlimit="10" stroke-width="3"/>
    <circle cx="703.6596" cy="425.918" r="10.5957" fill="#fff" stroke="#009b0b" stroke-linecap="round" stroke-miterlimit="10" stroke-width="3"/>
    <circle cx="892.643" cy="470.5137" r="10.5957" fill="#fff" stroke="#8b8e8b" stroke-linecap="round" stroke-miterlimit="10" stroke-width="3"/>
    <circle cx="892.643" cy="573.152" r="10.5957" fill="#fff" stroke="#8b8e8b" stroke-linecap="round" stroke-miterlimit="10" stroke-width="3"/>
    <circle cx="892.643" cy="425.918" r="10.5957" fill="#fff" stroke="#009b0b" stroke-linecap="round" stroke-miterlimit="10" stroke-width="3"/>
    <polyline points="892.643 622.4286 278.8558 622.4286 233.3098 530.8623 198.7729 530.8623" fill="none" stroke="#0027e5" stroke-linecap="round" stroke-miterlimit="10" stroke-width="4"/>
    <circle cx="330.3452" cy="622.9393" r="10.5957" fill="#fff" stroke="#0027e5" stroke-linecap="round" stroke-miterlimit="10" stroke-width="3"/>
    <circle cx="503.3617" cy="622.9393" r="10.5957" fill="#fff" stroke="#0027e5" stroke-linecap="round" stroke-miterlimit="10" stroke-width="3"/>
    <circle cx="703.6596" cy="622.9393" r="10.5957" fill="#fff" stroke="#0027e5" stroke-linecap="round" stroke-miterlimit="10" stroke-width="3"/>
    <circle cx="892.643" cy="622.9393" r="10.5957" fill="#fff" stroke="#0027e5" stroke-linecap="round" stroke-miterlimit="10" stroke-width="3"/>
    <line x1="892.643" y1="524.9818" x2="198.7729" y2="524.9818" fill="none" stroke="#f70000" stroke-linecap="round" stroke-miterlimit="10" stroke-width="4"/>
    <circle cx="330.3452" cy="523.8754" r="10.5957" fill="#fff" stroke="#f70000" stroke-linecap="round" stroke-miterlimit="10" stroke-width="4"/>
    <circle cx="503.3617" cy="523.8754" r="10.5957" fill="#fff" stroke="#f70000" stroke-linecap="round" stroke-miterlimit="10" stroke-width="4"/>
    <circle cx="703.6596" cy="523.8754" r="10.5957" fill="#fff" stroke="#f70000" stroke-linecap="round" stroke-miterlimit="10" stroke-width="4"/>
    <circle cx="892.643" cy="523.8754" r="10.5957" fill="#fff" stroke="#f70000" stroke-linecap="round" stroke-miterlimit="10" stroke-width="4"/>
  </g>
  <g>
    <line x1="892.643" y1="752.9919" x2="703.6596" y2="708.3961" fill="none" stroke="#009b0b" stroke-linecap="round" stroke-miterlimit="10" stroke-width="4"/>
    <line x1="703.6596" y1="806.3536" x2="891.1111" y2="754.8642" fill="none" stroke="#f70000" stroke-linecap="round" stroke-miterlimit="10" stroke-width="4"/>
    <line x1="892.2601" y1="854.4387" x2="703.2766" y2="809.8429" fill="none" stroke="#f70000" stroke-linecap="round" stroke-miterlimit="10" stroke-width="4"/>
    <line x1="703.2766" y1="907.8004" x2="890.7281" y2="856.311" fill="none" stroke="#0027e5" stroke-linecap="round" stroke-miterlimit="10" stroke-width="4"/>
    <polyline points="892.643 708.9068 278.8558 708.9068 233.7994 799.4889 198.7729 799.4889" fill="none" stroke="#009b0b" stroke-linecap="round" stroke-miterlimit="10" stroke-width="4"/>
    <circle cx="330.3452" cy="708.3961" r="10.5957" fill="#fff" stroke="#009b0b" stroke-linecap="round" stroke-miterlimit="10" stroke-width="3"/>
    <circle cx="503.3617" cy="708.3961" r="10.5957" fill="#fff" stroke="#009b0b" stroke-linecap="round" stroke-miterlimit="10" stroke-width="3"/>
    <circle cx="703.6596" cy="708.3961" r="10.5957" fill="#fff" stroke="#009b0b" stroke-linecap="round" stroke-miterlimit="10" stroke-width="3"/>
    <circle cx="892.643" cy="752.9919" r="10.5957" fill="#fff" stroke="#8b8e8b" stroke-linecap="round" stroke-miterlimit="10" stroke-width="3"/>
    <circle cx="892.643" cy="855.6302" r="10.5957" fill="#fff" stroke="#8b8e8b" stroke-linecap="round" stroke-miterlimit="10" stroke-width="3"/>
    <circle cx="892.643" cy="708.3961" r="10.5957" fill="#fff" stroke="#009b0b" stroke-linecap="round" stroke-miterlimit="10" stroke-width="3"/>
    <polyline points="892.643 904.9068 278.8558 904.9068 233.3098 813.3404 198.7729 813.3404" fill="none" stroke="#0027e5" stroke-linecap="round" stroke-miterlimit="10" stroke-width="4"/>
    <circle cx="330.3452" cy="905.4174" r="10.5957" fill="#fff" stroke="#0027e5" stroke-linecap="round" stroke-miterlimit="10" stroke-width="3"/>
    <circle cx="503.3617" cy="905.4174" r="10.5957" fill="#fff" stroke="#0027e5" stroke-linecap="round" stroke-miterlimit="10" stroke-width="3"/>
    <circle cx="703.6596" cy="905.4174" r="10.5957" fill="#fff" stroke="#0027e5" stroke-linecap="round" stroke-miterlimit="10" stroke-width="3"/>
    <circle cx="892.643" cy="905.4174" r="10.5957" fill="#fff" stroke="#0027e5" stroke-linecap="round" stroke-miterlimit="10" stroke-width="3"/>
    <line x1="892.643" y1="807.4599" x2="198.7729" y2="807.4599" fill="none" stroke="#f70000" stroke-linecap="round" stroke-miterlimit="10" stroke-width="4"/>
    <circle cx="330.3452" cy="806.3536" r="10.5957" fill="#fff" stroke="#f70000" stroke-linecap="round" stroke-miterlimit="10" stroke-width="4"/>
    <circle cx="503.3617" cy="806.3536" r="10.5957" fill="#fff" stroke="#f70000" stroke-linecap="round" stroke-miterlimit="10" stroke-width="4"/>
    <circle cx="703.6596" cy="806.3536" r="10.5957" fill="#fff" stroke="#f70000" stroke-linecap="round" stroke-miterlimit="10" stroke-width="4"/>
    <circle cx="892.643" cy="806.3536" r="10.5957" fill="#fff" stroke="#f70000" stroke-linecap="round" stroke-miterlimit="10" stroke-width="4"/>
  </g>
  <g>
    <line x1="892.643" y1="1024.6063" x2="703.6596" y2="980.0105" fill="none" stroke="#f70000" stroke-linecap="round" stroke-miterlimit="10" stroke-width="4"/>
    <line x1="703.6596" y1="1077.968" x2="891.1111" y2="1026.4786" fill="none" stroke="#009b0b" stroke-linecap="round" stroke-miterlimit="10" stroke-width="4"/>
    <line x1="892.2601" y1="1126.0531" x2="703.2766" y2="1081.4573" fill="none" stroke="#009b0b" stroke-linecap="round" stroke-miterlimit="10" stroke-width="4"/>
    <line x1="703.2766" y1="1179.4148" x2="890.7281" y2="1127.9254" fill="none" stroke="#0027e5" stroke-linecap="round" stroke-miterlimit="10" stroke-width="4"/>
    <polyline points="892.643 980.5212 278.8558 980.5212 233.7994 1071.1034 198.7729 1071.1034" fill="none" stroke="#f70000" stroke-linecap="round" stroke-miterlimit="10" stroke-width="4"/>
    <circle cx="330.3452" cy="980.0105" r="10.5957" fill="#fff" stroke="#f70000" stroke-linecap="round" stroke-miterlimit="10" stroke-width="3"/>
    <circle cx="503.3617" cy="980.0105" r="10.5957" fill="#fff" stroke="#f70000" stroke-linecap="round" stroke-miterlimit="10" stroke-width="3"/>
    <circle cx="703.6596" cy="980.0105" r="10.5957" fill="#fff" stroke="#f70000" stroke-linecap="round" stroke-miterlimit="10" stroke-width="3"/>
    <circle cx="892.643" cy="1024.6063" r="10.5957" fill="#fff" stroke="#8b8e8b" stroke-linecap="round" stroke-miterlimit="10" stroke-width="3"/>
    <circle cx="892.643" cy="1127.2446" r="10.5957" fill="#fff" stroke="#8b8e8b" stroke-linecap="round" stroke-miterlimit="10" stroke-width="3"/>
    <circle cx="892.643" cy="980.0105" r="10.5957" fill="#fff" stroke="#f70000" stroke-linecap="round" stroke-miterlimit="10" stroke-width="3"/>
    <polyline points="892.643 1176.5212 278.8558 1176.5212 233.3098 1084.9548 198.7729 1084.9548" fill="none" stroke="#0027e5" stroke-linecap="round" stroke-miterlimit="10" stroke-width="4"/>
    <circle cx="330.3452" cy="1177.0318" r="10.5957" fill="#fff" stroke="#0027e5" stroke-linecap="round" stroke-miterlimit="10" stroke-width="3"/>
    <circle cx="503.3617" cy="1177.0318" r="10.5957" fill="#fff" stroke="#0027e5" stroke-linecap="round" stroke-miterlimit="10" stroke-width="3"/>
    <circle cx="703.6596" cy="1177.0318" r="10.5957" fill="#fff" stroke="#0027e5" stroke-linecap="round" stroke-miterlimit="10" stroke-width="3"/>
    <circle cx="892.643" cy="1177.0318" r="10.5957" fill="#fff" stroke="#0027e5" stroke-linecap="round" stroke-miterlimit="10" stroke-width="3"/>
    <line x1="892.643" y1="1079.0744" x2="198.7729" y2="1079.0744" fill="none" stroke="#009b0b" stroke-linecap="round" stroke-miterlimit="10" stroke-width="4"/>
    <circle cx="330.3452" cy="1077.968" r="10.5957" fill="#fff" stroke="#009b0b" stroke-linecap="round" stroke-miterlimit="10" stroke-width="4"/>
    <circle cx="503.3617" cy="1077.968" r="10.5957" fill="#fff" stroke="#009b0b" stroke-linecap="round" stroke-miterlimit="10" stroke-width="4"/>
    <circle cx="703.6596" cy="1077.968" r="10.5957" fill="#fff" stroke="#009b0b" stroke-linecap="round" stroke-miterlimit="10" stroke-width="4"/>
    <circle cx="892.643" cy="1077.968" r="10.5957" fill="#fff" stroke="#009b0b" stroke-linecap="round" stroke-miterlimit="10" stroke-width="4"/>
  </g>
  <g>
    <line x1="892.643" y1="1294.8635" x2="703.6596" y2="1250.2678" fill="none" stroke="#009b0b" stroke-linecap="round" stroke-miterlimit="10" stroke-width="4"/>
    <line x1="703.6596" y1="1348.2252" x2="891.1111" y2="1296.7359" fill="none" stroke="#0027e5" stroke-linecap="round" stroke-miterlimit="10" stroke-width="4"/>
    <line x1="892.2601" y1="1396.3104" x2="703.2766" y2="1351.7146" fill="none" stroke="#0027e5" stroke-linecap="round" stroke-miterlimit="10" stroke-width="4"/>
    <line x1="703.2766" y1="1449.6721" x2="890.7281" y2="1398.1827" fill="none" stroke="#f70000" stroke-linecap="round" stroke-miterlimit="10" stroke-width="4"/>
    <polyline points="892.643 1250.7784 278.8558 1250.7784 233.7994 1341.3606 198.7729 1341.3606" fill="none" stroke="#009b0b" stroke-linecap="round" stroke-miterlimit="10" stroke-width="4"/>
    <circle cx="330.3452" cy="1250.2678" r="10.5957" fill="#fff" stroke="#009b0b" stroke-linecap="round" stroke-miterlimit="10" stroke-width="3"/>
    <circle cx="503.3617" cy="1250.2678" r="10.5957" fill="#fff" stroke="#009b0b" stroke-linecap="round" stroke-miterlimit="10" stroke-width="3"/>
    <circle cx="703.6596" cy="1250.2678" r="10.5957" fill="#fff" stroke="#009b0b" stroke-linecap="round" stroke-miterlimit="10" stroke-width="3"/>
    <circle cx="892.643" cy="1294.8635" r="10.5957" fill="#fff" stroke="#8b8e8b" stroke-linecap="round" stroke-miterlimit="10" stroke-width="3"/>
    <circle cx="892.643" cy="1397.5018" r="10.5957" fill="#fff" stroke="#8b8e8b" stroke-linecap="round" stroke-miterlimit="10" stroke-width="3"/>
    <circle cx="892.643" cy="1250.2678" r="10.5957" fill="#fff" stroke="#009b0b" stroke-linecap="round" stroke-miterlimit="10" stroke-width="3"/>
    <polyline points="892.643 1446.7784 278.8558 1446.7784 233.3098 1355.2121 198.7729 1355.2121" fill="none" stroke="#f70000" stroke-linecap="round" stroke-miterlimit="10" stroke-width="4"/>
    <circle cx="330.3452" cy="1447.2891" r="10.5957" fill="#fff" stroke="#f70000" stroke-linecap="round" stroke-miterlimit="10" stroke-width="3"/>
    <circle cx="503.3617" cy="1447.2891" r="10.5957" fill="#fff" stroke="#f70000" stroke-linecap="round" stroke-miterlimit="10" stroke-width="3"/>
    <circle cx="703.6596" cy="1447.2891" r="10.5957" fill="#fff" stroke="#f70000" stroke-linecap="round" stroke-miterlimit="10" stroke-width="3"/>
    <circle cx="892.643" cy="1447.2891" r="10.5957" fill="#fff" stroke="#f70000" stroke-linecap="round" stroke-miterlimit="10" stroke-width="3"/>
    <line x1="892.643" y1="1349.3316" x2="198.7729" y2="1349.3316" fill="none" stroke="#0027e5" stroke-linecap="round" stroke-miterlimit="10" stroke-width="4"/>
    <circle cx="330.3452" cy="1348.2252" r="10.5957" fill="#fff" stroke="#0027e5" stroke-linecap="round" stroke-miterlimit="10" stroke-width="4"/>
    <circle cx="503.3617" cy="1348.2252" r="10.5957" fill="#fff" stroke="#0027e5" stroke-linecap="round" stroke-miterlimit="10" stroke-width="4"/>
    <circle cx="703.6596" cy="1348.2252" r="10.5957" fill="#fff" stroke="#0027e5" stroke-linecap="round" stroke-miterlimit="10" stroke-width="4"/>
    <circle cx="892.643" cy="1348.2252" r="10.5957" fill="#fff" stroke="#0027e5" stroke-linecap="round" stroke-miterlimit="10" stroke-width="4"/>
  </g>
</svg>