<?xml version="1.0" encoding="UTF-8"?>
<svg id="craft_weapons" data-name="craft weapons" xmlns="http://www.w3.org/2000/svg" width="375.1376" height="93.4468" viewBox="0 0 375.1376 93.4468">
  <rect x="20.0785" y="18.8712" width="332.4657" height="60.3227" rx="6.1781" ry="6.1781" fill="none" stroke="#fff" stroke-miterlimit="10" stroke-width="1.9212"/>
  <rect x="15.7726" y="14.5559" width="332.4657" height="60.3227" rx="6.1781" ry="6.1781" fill="#d30000"/>
  <rect x="22.7157" y="18.8712" width="320.174" height="50.5637" rx="5.1394" ry="5.1394" fill="none" stroke="#fff" stroke-miterlimit="10" stroke-width="1.733"/>
  <text transform="translate(89.7029 53.6054) scale(1 .75)" fill="#fff" font-family="Gotham-Black, &apos;Gotham Black&apos;" font-size="33.7926"><tspan x="0" y="0">C</tspan><tspan x="24.668" y="0" letter-spacing="-.025em">r</tspan><tspan x="38.2861" y="0">aft </tspan><tspan x="96.1055" y="0" letter-spacing="-.067em">W</tspan><tspan x="131.5879" y="0">eapon</tspan></text>
  <g>
    <path d="M35.0222,57.0896c.0296-.1118,.0566-.2243,.0893-.3352,.1144-.3878,.3267-.7135,.6154-.9961,3.2814-3.2122,6.5611-6.4262,9.8411-9.6398,3.0772-3.0148,6.1544-6.0297,9.2317-9.0445,.0562-.0551,.114-.1086,.1838-.1749l4.0537,4.1674c-.4614,.5108-.9117,1.0097-1.3625,1.5081-3.2663,3.6117-6.5327,7.2232-9.7989,10.835-2.3182,2.5634-4.6358,5.1274-6.9544,7.6904-.7929,.8765-2.2173,.885-3.0815,.0113-.7552-.7635-1.5004-1.5369-2.25-2.3059-.2516-.2582-.4162-.5639-.5009-.9137-.02-.0828-.0444-.1644-.0668-.2466v-.5556Z" fill="#fff"/>
    <path d="M54.8396,26.2728c.3366,.0341,.6734,.0667,1.0099,.1026,2.9056,.3104,5.4035,1.4682,7.4573,3.5656,1.0493,1.0716,2.1062,2.1364,3.1834,3.1798,.3805,.3686,.5372,.7943,.5742,1.297,.0402,.5474,.0634,1.0982,.144,1.64,.1747,1.174,.9126,1.8699,2.0878,2.0097,.0731,.0087,.1711,.0013,.2237-.0408,.4756-.381,1.2955-.3309,1.7864,.1531,.2896,.2855,.5693,.585,.8224,.9029,.5147,.6464,.4309,1.5194-.1857,2.1505-.5133,.5254-1.0287,1.0487-1.5434,1.5727-.4671,.4756-.9329,.9524-1.4023,1.4258-.6888,.6946-1.695,.6794-2.3665-.0331-.237-.2515-.4789-.4987-.7086-.7567-.3064-.3442-.4957-.7446-.4555-1.213,.013-.1516,.0953-.3179,.1944-.4372,.1999-.2407,.2342-.5113,.1589-.7833-.073-.2636-.1734-.5348-.3268-.7581-.5135-.7477-1.1702-1.3449-2.0406-1.6439-.3492-.1199-.7325-.1712-1.1035-.1895-.459-.0227-.8708,.1407-1.2023,.4794-.3752,.3832-.7568,.7602-1.1501,1.1543l-4.1801-4.125c.1207-.1131,.2371-.2123,.3421-.3223,.3236-.3393,.6526-.6742,.9616-1.0266,.4635-.5286,.5705-1.1331,.3278-1.795-.1379-.376-.3425-.7083-.6373-.9853-1.5899-1.4941-3.4742-2.4351-5.5738-2.9727-.9714-.2487-1.9569-.4035-2.9603-.4357-.0296-.001-.0591-.0067-.1084-.0125-.0192-.4056-.0419-.8043-.0508-1.2034-.0009-.0386,.0783-.1023,.1301-.1154,1.2458-.3146,2.5049-.5572,3.7854-.6788,.3799-.0361,.76-.0701,1.1401-.1051h1.6669Z" fill="#fff"/>
  </g>
</svg>